<mxfile host="app.diagrams.net" modified="2020-08-21T20:55:34.772Z" agent="5.0 (Windows NT 6.1; Win64; x64) AppleWebKit/537.36 (KHTML, like Gecko) Chrome/84.0.4147.135 Safari/537.36" etag="fDfGzHdyu2pg1qVh2MV9" version="13.6.3" type="github">
  <diagram id="q_tX1DNj-99TgJZ54Yid" name="PÃ¡gina-1">
    <mxGraphModel dx="1021" dy="509" grid="1" gridSize="10" guides="1" tooltips="1" connect="1" arrows="1" fold="1" page="1" pageScale="1" pageWidth="827" pageHeight="1169" math="0" shadow="0">
      <root>
        <mxCell id="0" />
        <mxCell id="1" parent="0" />
        <mxCell id="uzaHLaAloiq683FSmLbI-33" value="" style="fontSize=8;html=1;endArrow=ERzeroToMany;startArrow=ERone;endSize=8;targetPerimeterSpacing=2;sourcePerimeterSpacing=2;startSize=8;startFill=0;entryX=0.5;entryY=1;entryDx=0;entryDy=0;" parent="1" target="4qhFQr76ofjWPNA47JDN-3" edge="1">
          <mxGeometry width="100" height="100" relative="1" as="geometry">
            <mxPoint x="310" y="947" as="sourcePoint" />
            <mxPoint x="300" y="590" as="targetPoint" />
          </mxGeometry>
        </mxCell>
        <mxCell id="uzaHLaAloiq683FSmLbI-117" value="Departamento" style="shape=table;startSize=30;container=1;collapsible=1;childLayout=tableLayout;fixedRows=1;rowLines=0;fontStyle=1;align=center;resizeLast=1;fontSize=8;" parent="1" vertex="1">
          <mxGeometry x="610" y="310" width="130" height="130" as="geometry">
            <mxRectangle x="600" y="310" width="130" height="30" as="alternateBounds" />
          </mxGeometry>
        </mxCell>
        <mxCell id="uzaHLaAloiq683FSmLbI-118" value="" style="shape=partialRectangle;collapsible=0;dropTarget=0;pointerEvents=0;fillColor=none;top=0;left=0;bottom=1;right=0;points=[[0,0.5],[1,0.5]];portConstraint=eastwest;fontSize=8;" parent="uzaHLaAloiq683FSmLbI-117" vertex="1">
          <mxGeometry y="30" width="130" height="30" as="geometry" />
        </mxCell>
        <mxCell id="uzaHLaAloiq683FSmLbI-119" value="PK" style="shape=partialRectangle;connectable=0;fillColor=none;top=0;left=0;bottom=0;right=0;fontStyle=1;overflow=hidden;fontSize=8;" parent="uzaHLaAloiq683FSmLbI-118" vertex="1">
          <mxGeometry width="30" height="30" as="geometry" />
        </mxCell>
        <mxCell id="uzaHLaAloiq683FSmLbI-120" value="Cod_departamento" style="shape=partialRectangle;connectable=0;fillColor=none;top=0;left=0;bottom=0;right=0;align=left;spacingLeft=6;fontStyle=5;overflow=hidden;fontSize=8;" parent="uzaHLaAloiq683FSmLbI-118" vertex="1">
          <mxGeometry x="30" width="100" height="30" as="geometry" />
        </mxCell>
        <mxCell id="uzaHLaAloiq683FSmLbI-121" value="" style="shape=partialRectangle;collapsible=0;dropTarget=0;pointerEvents=0;fillColor=none;top=0;left=0;bottom=0;right=0;points=[[0,0.5],[1,0.5]];portConstraint=eastwest;fontSize=8;" parent="uzaHLaAloiq683FSmLbI-117" vertex="1">
          <mxGeometry y="60" width="130" height="30" as="geometry" />
        </mxCell>
        <mxCell id="uzaHLaAloiq683FSmLbI-122" value="" style="shape=partialRectangle;connectable=0;fillColor=none;top=0;left=0;bottom=0;right=0;editable=1;overflow=hidden;fontSize=8;" parent="uzaHLaAloiq683FSmLbI-121" vertex="1">
          <mxGeometry width="30" height="30" as="geometry" />
        </mxCell>
        <mxCell id="uzaHLaAloiq683FSmLbI-123" value="Nome_dep" style="shape=partialRectangle;connectable=0;fillColor=none;top=0;left=0;bottom=0;right=0;align=left;spacingLeft=6;overflow=hidden;fontSize=8;" parent="uzaHLaAloiq683FSmLbI-121" vertex="1">
          <mxGeometry x="30" width="100" height="30" as="geometry" />
        </mxCell>
        <mxCell id="uzaHLaAloiq683FSmLbI-124" value="" style="shape=partialRectangle;collapsible=0;dropTarget=0;pointerEvents=0;fillColor=none;top=0;left=0;bottom=0;right=0;points=[[0,0.5],[1,0.5]];portConstraint=eastwest;fontSize=8;" parent="uzaHLaAloiq683FSmLbI-117" vertex="1">
          <mxGeometry y="90" width="130" height="30" as="geometry" />
        </mxCell>
        <mxCell id="uzaHLaAloiq683FSmLbI-125" value="FK" style="shape=partialRectangle;connectable=0;fillColor=none;top=0;left=0;bottom=0;right=0;editable=1;overflow=hidden;fontSize=8;" parent="uzaHLaAloiq683FSmLbI-124" vertex="1">
          <mxGeometry width="30" height="30" as="geometry" />
        </mxCell>
        <mxCell id="uzaHLaAloiq683FSmLbI-126" value="Mat_Chefe" style="shape=partialRectangle;connectable=0;fillColor=none;top=0;left=0;bottom=0;right=0;align=left;spacingLeft=6;overflow=hidden;fontSize=8;" parent="uzaHLaAloiq683FSmLbI-124" vertex="1">
          <mxGeometry x="30" width="100" height="30" as="geometry" />
        </mxCell>
        <mxCell id="uzaHLaAloiq683FSmLbI-69" value="Emprestimo" style="shape=table;startSize=30;container=1;collapsible=1;childLayout=tableLayout;fixedRows=1;rowLines=0;fontStyle=1;align=center;resizeLast=1;fontSize=8;" parent="1" vertex="1">
          <mxGeometry x="430" y="90" width="120" height="250" as="geometry">
            <mxRectangle x="350" y="20" width="110" height="30" as="alternateBounds" />
          </mxGeometry>
        </mxCell>
        <mxCell id="uzaHLaAloiq683FSmLbI-70" value="" style="shape=partialRectangle;collapsible=0;dropTarget=0;pointerEvents=0;fillColor=none;top=0;left=0;bottom=1;right=0;points=[[0,0.5],[1,0.5]];portConstraint=eastwest;fontSize=8;" parent="uzaHLaAloiq683FSmLbI-69" vertex="1">
          <mxGeometry y="30" width="120" height="30" as="geometry" />
        </mxCell>
        <mxCell id="uzaHLaAloiq683FSmLbI-71" value="PK" style="shape=partialRectangle;connectable=0;fillColor=none;top=0;left=0;bottom=0;right=0;fontStyle=1;overflow=hidden;fontSize=8;" parent="uzaHLaAloiq683FSmLbI-70" vertex="1">
          <mxGeometry width="30" height="30" as="geometry" />
        </mxCell>
        <mxCell id="uzaHLaAloiq683FSmLbI-72" value="Cod_Emp" style="shape=partialRectangle;connectable=0;fillColor=none;top=0;left=0;bottom=0;right=0;align=left;spacingLeft=6;fontStyle=5;overflow=hidden;fontSize=8;" parent="uzaHLaAloiq683FSmLbI-70" vertex="1">
          <mxGeometry x="30" width="90" height="30" as="geometry" />
        </mxCell>
        <mxCell id="uzaHLaAloiq683FSmLbI-73" value="" style="shape=partialRectangle;collapsible=0;dropTarget=0;pointerEvents=0;fillColor=none;top=0;left=0;bottom=0;right=0;points=[[0,0.5],[1,0.5]];portConstraint=eastwest;fontSize=8;" parent="uzaHLaAloiq683FSmLbI-69" vertex="1">
          <mxGeometry y="60" width="120" height="30" as="geometry" />
        </mxCell>
        <mxCell id="uzaHLaAloiq683FSmLbI-74" value="FK" style="shape=partialRectangle;connectable=0;fillColor=none;top=0;left=0;bottom=0;right=0;editable=1;overflow=hidden;fontSize=8;" parent="uzaHLaAloiq683FSmLbI-73" vertex="1">
          <mxGeometry width="30" height="30" as="geometry" />
        </mxCell>
        <mxCell id="uzaHLaAloiq683FSmLbI-75" value="Cod_Obra" style="shape=partialRectangle;connectable=0;fillColor=none;top=0;left=0;bottom=0;right=0;align=left;spacingLeft=6;overflow=hidden;fontSize=8;" parent="uzaHLaAloiq683FSmLbI-73" vertex="1">
          <mxGeometry x="30" width="90" height="30" as="geometry" />
        </mxCell>
        <mxCell id="uzaHLaAloiq683FSmLbI-76" value="" style="shape=partialRectangle;collapsible=0;dropTarget=0;pointerEvents=0;fillColor=none;top=0;left=0;bottom=0;right=0;points=[[0,0.5],[1,0.5]];portConstraint=eastwest;fontSize=8;" parent="uzaHLaAloiq683FSmLbI-69" vertex="1">
          <mxGeometry y="90" width="120" height="30" as="geometry" />
        </mxCell>
        <mxCell id="uzaHLaAloiq683FSmLbI-77" value="FK" style="shape=partialRectangle;connectable=0;fillColor=none;top=0;left=0;bottom=0;right=0;editable=1;overflow=hidden;fontSize=8;" parent="uzaHLaAloiq683FSmLbI-76" vertex="1">
          <mxGeometry width="30" height="30" as="geometry" />
        </mxCell>
        <mxCell id="uzaHLaAloiq683FSmLbI-78" value="Cod_user" style="shape=partialRectangle;connectable=0;fillColor=none;top=0;left=0;bottom=0;right=0;align=left;spacingLeft=6;overflow=hidden;fontSize=8;" parent="uzaHLaAloiq683FSmLbI-76" vertex="1">
          <mxGeometry x="30" width="90" height="30" as="geometry" />
        </mxCell>
        <mxCell id="uzaHLaAloiq683FSmLbI-79" value="" style="shape=partialRectangle;collapsible=0;dropTarget=0;pointerEvents=0;fillColor=none;top=0;left=0;bottom=0;right=0;points=[[0,0.5],[1,0.5]];portConstraint=eastwest;fontSize=8;" parent="uzaHLaAloiq683FSmLbI-69" vertex="1">
          <mxGeometry y="120" width="120" height="30" as="geometry" />
        </mxCell>
        <mxCell id="uzaHLaAloiq683FSmLbI-80" value="" style="shape=partialRectangle;connectable=0;fillColor=none;top=0;left=0;bottom=0;right=0;editable=1;overflow=hidden;fontSize=8;" parent="uzaHLaAloiq683FSmLbI-79" vertex="1">
          <mxGeometry width="30" height="30" as="geometry" />
        </mxCell>
        <mxCell id="uzaHLaAloiq683FSmLbI-81" value="Data_emp" style="shape=partialRectangle;connectable=0;fillColor=none;top=0;left=0;bottom=0;right=0;align=left;spacingLeft=6;overflow=hidden;fontSize=8;" parent="uzaHLaAloiq683FSmLbI-79" vertex="1">
          <mxGeometry x="30" width="90" height="30" as="geometry" />
        </mxCell>
        <mxCell id="uzaHLaAloiq683FSmLbI-82" value="" style="shape=partialRectangle;collapsible=0;dropTarget=0;pointerEvents=0;fillColor=none;top=0;left=0;bottom=0;right=0;points=[[0,0.5],[1,0.5]];portConstraint=eastwest;fontSize=8;" parent="uzaHLaAloiq683FSmLbI-69" vertex="1">
          <mxGeometry y="150" width="120" height="30" as="geometry" />
        </mxCell>
        <mxCell id="uzaHLaAloiq683FSmLbI-83" value="" style="shape=partialRectangle;connectable=0;fillColor=none;top=0;left=0;bottom=0;right=0;editable=1;overflow=hidden;fontSize=8;" parent="uzaHLaAloiq683FSmLbI-82" vertex="1">
          <mxGeometry width="30" height="30" as="geometry" />
        </mxCell>
        <mxCell id="uzaHLaAloiq683FSmLbI-84" value="Horario_emp" style="shape=partialRectangle;connectable=0;fillColor=none;top=0;left=0;bottom=0;right=0;align=left;spacingLeft=6;overflow=hidden;fontSize=8;" parent="uzaHLaAloiq683FSmLbI-82" vertex="1">
          <mxGeometry x="30" width="90" height="30" as="geometry" />
        </mxCell>
        <mxCell id="uzaHLaAloiq683FSmLbI-85" value="" style="shape=partialRectangle;collapsible=0;dropTarget=0;pointerEvents=0;fillColor=none;top=0;left=0;bottom=0;right=0;points=[[0,0.5],[1,0.5]];portConstraint=eastwest;fontSize=8;" parent="uzaHLaAloiq683FSmLbI-69" vertex="1">
          <mxGeometry y="180" width="120" height="30" as="geometry" />
        </mxCell>
        <mxCell id="uzaHLaAloiq683FSmLbI-86" value="" style="shape=partialRectangle;connectable=0;fillColor=none;top=0;left=0;bottom=0;right=0;editable=1;overflow=hidden;fontSize=8;" parent="uzaHLaAloiq683FSmLbI-85" vertex="1">
          <mxGeometry width="30" height="30" as="geometry" />
        </mxCell>
        <mxCell id="uzaHLaAloiq683FSmLbI-87" value="Data_Dev" style="shape=partialRectangle;connectable=0;fillColor=none;top=0;left=0;bottom=0;right=0;align=left;spacingLeft=6;overflow=hidden;fontSize=8;" parent="uzaHLaAloiq683FSmLbI-85" vertex="1">
          <mxGeometry x="30" width="90" height="30" as="geometry" />
        </mxCell>
        <mxCell id="uzaHLaAloiq683FSmLbI-88" value="" style="shape=partialRectangle;collapsible=0;dropTarget=0;pointerEvents=0;fillColor=none;top=0;left=0;bottom=0;right=0;points=[[0,0.5],[1,0.5]];portConstraint=eastwest;fontSize=8;" parent="uzaHLaAloiq683FSmLbI-69" vertex="1">
          <mxGeometry y="210" width="120" height="30" as="geometry" />
        </mxCell>
        <mxCell id="uzaHLaAloiq683FSmLbI-89" value="FK" style="shape=partialRectangle;connectable=0;fillColor=none;top=0;left=0;bottom=0;right=0;editable=1;overflow=hidden;fontSize=8;" parent="uzaHLaAloiq683FSmLbI-88" vertex="1">
          <mxGeometry width="30" height="30" as="geometry" />
        </mxCell>
        <mxCell id="uzaHLaAloiq683FSmLbI-90" value="Mat_Func" style="shape=partialRectangle;connectable=0;fillColor=none;top=0;left=0;bottom=0;right=0;align=left;spacingLeft=6;overflow=hidden;fontSize=8;" parent="uzaHLaAloiq683FSmLbI-88" vertex="1">
          <mxGeometry x="30" width="90" height="30" as="geometry" />
        </mxCell>
        <mxCell id="uzaHLaAloiq683FSmLbI-91" value="Devolucao" style="shape=table;startSize=30;container=1;collapsible=1;childLayout=tableLayout;fixedRows=1;rowLines=0;fontStyle=1;align=center;resizeLast=1;fontSize=8;" parent="1" vertex="1">
          <mxGeometry x="220" y="100" width="120" height="170" as="geometry">
            <mxRectangle x="360" y="360" width="110" height="30" as="alternateBounds" />
          </mxGeometry>
        </mxCell>
        <mxCell id="uzaHLaAloiq683FSmLbI-92" value="" style="shape=partialRectangle;collapsible=0;dropTarget=0;pointerEvents=0;fillColor=none;top=0;left=0;bottom=1;right=0;points=[[0,0.5],[1,0.5]];portConstraint=eastwest;fontSize=8;" parent="uzaHLaAloiq683FSmLbI-91" vertex="1">
          <mxGeometry y="30" width="120" height="30" as="geometry" />
        </mxCell>
        <mxCell id="uzaHLaAloiq683FSmLbI-93" value="PK,FK" style="shape=partialRectangle;connectable=0;fillColor=none;top=0;left=0;bottom=0;right=0;fontStyle=1;overflow=hidden;fontSize=8;" parent="uzaHLaAloiq683FSmLbI-92" vertex="1">
          <mxGeometry width="30" height="30" as="geometry" />
        </mxCell>
        <mxCell id="uzaHLaAloiq683FSmLbI-94" value="Cod_emprestimo" style="shape=partialRectangle;connectable=0;fillColor=none;top=0;left=0;bottom=0;right=0;align=left;spacingLeft=6;fontStyle=5;overflow=hidden;fontSize=8;" parent="uzaHLaAloiq683FSmLbI-92" vertex="1">
          <mxGeometry x="30" width="90" height="30" as="geometry" />
        </mxCell>
        <mxCell id="uzaHLaAloiq683FSmLbI-95" value="" style="shape=partialRectangle;collapsible=0;dropTarget=0;pointerEvents=0;fillColor=none;top=0;left=0;bottom=0;right=0;points=[[0,0.5],[1,0.5]];portConstraint=eastwest;fontSize=8;" parent="uzaHLaAloiq683FSmLbI-91" vertex="1">
          <mxGeometry y="60" width="120" height="30" as="geometry" />
        </mxCell>
        <mxCell id="uzaHLaAloiq683FSmLbI-96" value="" style="shape=partialRectangle;connectable=0;fillColor=none;top=0;left=0;bottom=0;right=0;editable=1;overflow=hidden;fontSize=8;" parent="uzaHLaAloiq683FSmLbI-95" vertex="1">
          <mxGeometry width="30" height="30" as="geometry" />
        </mxCell>
        <mxCell id="uzaHLaAloiq683FSmLbI-97" value="Data_devolucao" style="shape=partialRectangle;connectable=0;fillColor=none;top=0;left=0;bottom=0;right=0;align=left;spacingLeft=6;overflow=hidden;fontSize=8;" parent="uzaHLaAloiq683FSmLbI-95" vertex="1">
          <mxGeometry x="30" width="90" height="30" as="geometry" />
        </mxCell>
        <mxCell id="uzaHLaAloiq683FSmLbI-98" value="" style="shape=partialRectangle;collapsible=0;dropTarget=0;pointerEvents=0;fillColor=none;top=0;left=0;bottom=0;right=0;points=[[0,0.5],[1,0.5]];portConstraint=eastwest;fontSize=8;" parent="uzaHLaAloiq683FSmLbI-91" vertex="1">
          <mxGeometry y="90" width="120" height="30" as="geometry" />
        </mxCell>
        <mxCell id="uzaHLaAloiq683FSmLbI-99" value="" style="shape=partialRectangle;connectable=0;fillColor=none;top=0;left=0;bottom=0;right=0;editable=1;overflow=hidden;fontSize=8;" parent="uzaHLaAloiq683FSmLbI-98" vertex="1">
          <mxGeometry width="30" height="30" as="geometry" />
        </mxCell>
        <mxCell id="uzaHLaAloiq683FSmLbI-100" value="Hora_devolucao" style="shape=partialRectangle;connectable=0;fillColor=none;top=0;left=0;bottom=0;right=0;align=left;spacingLeft=6;overflow=hidden;fontSize=8;" parent="uzaHLaAloiq683FSmLbI-98" vertex="1">
          <mxGeometry x="30" width="90" height="30" as="geometry" />
        </mxCell>
        <mxCell id="uzaHLaAloiq683FSmLbI-101" value="" style="shape=partialRectangle;collapsible=0;dropTarget=0;pointerEvents=0;fillColor=none;top=0;left=0;bottom=0;right=0;points=[[0,0.5],[1,0.5]];portConstraint=eastwest;fontSize=8;" parent="uzaHLaAloiq683FSmLbI-91" vertex="1">
          <mxGeometry y="120" width="120" height="40" as="geometry" />
        </mxCell>
        <mxCell id="uzaHLaAloiq683FSmLbI-102" value="FK" style="shape=partialRectangle;connectable=0;fillColor=none;top=0;left=0;bottom=0;right=0;editable=1;overflow=hidden;fontSize=8;" parent="uzaHLaAloiq683FSmLbI-101" vertex="1">
          <mxGeometry width="30" height="40" as="geometry" />
        </mxCell>
        <mxCell id="uzaHLaAloiq683FSmLbI-103" value="Mat_funcionario" style="shape=partialRectangle;connectable=0;fillColor=none;top=0;left=0;bottom=0;right=0;align=left;spacingLeft=6;overflow=hidden;fontSize=8;" parent="uzaHLaAloiq683FSmLbI-101" vertex="1">
          <mxGeometry x="30" width="90" height="40" as="geometry" />
        </mxCell>
        <mxCell id="uzaHLaAloiq683FSmLbI-34" value="Usuario" style="shape=table;startSize=30;container=1;collapsible=1;childLayout=tableLayout;fixedRows=1;rowLines=0;fontStyle=1;align=center;resizeLast=1;fontSize=8;" parent="1" vertex="1">
          <mxGeometry x="440" y="370" width="110" height="360" as="geometry">
            <mxRectangle x="80" y="80" width="90" height="30" as="alternateBounds" />
          </mxGeometry>
        </mxCell>
        <mxCell id="uzaHLaAloiq683FSmLbI-35" value="" style="shape=partialRectangle;collapsible=0;dropTarget=0;pointerEvents=0;fillColor=none;top=0;left=0;bottom=1;right=0;points=[[0,0.5],[1,0.5]];portConstraint=eastwest;fontSize=8;" parent="uzaHLaAloiq683FSmLbI-34" vertex="1">
          <mxGeometry y="30" width="110" height="30" as="geometry" />
        </mxCell>
        <mxCell id="uzaHLaAloiq683FSmLbI-36" value="PK" style="shape=partialRectangle;connectable=0;fillColor=none;top=0;left=0;bottom=0;right=0;fontStyle=1;overflow=hidden;fontSize=8;" parent="uzaHLaAloiq683FSmLbI-35" vertex="1">
          <mxGeometry width="30" height="30" as="geometry" />
        </mxCell>
        <mxCell id="uzaHLaAloiq683FSmLbI-37" value="Cod_Usuario" style="shape=partialRectangle;connectable=0;fillColor=none;top=0;left=0;bottom=0;right=0;align=left;spacingLeft=6;fontStyle=5;overflow=hidden;fontSize=8;" parent="uzaHLaAloiq683FSmLbI-35" vertex="1">
          <mxGeometry x="30" width="80" height="30" as="geometry" />
        </mxCell>
        <mxCell id="uzaHLaAloiq683FSmLbI-38" value="" style="shape=partialRectangle;collapsible=0;dropTarget=0;pointerEvents=0;fillColor=none;top=0;left=0;bottom=0;right=0;points=[[0,0.5],[1,0.5]];portConstraint=eastwest;fontSize=8;" parent="uzaHLaAloiq683FSmLbI-34" vertex="1">
          <mxGeometry y="60" width="110" height="30" as="geometry" />
        </mxCell>
        <mxCell id="uzaHLaAloiq683FSmLbI-39" value="" style="shape=partialRectangle;connectable=0;fillColor=none;top=0;left=0;bottom=0;right=0;editable=1;overflow=hidden;fontSize=8;" parent="uzaHLaAloiq683FSmLbI-38" vertex="1">
          <mxGeometry width="30" height="30" as="geometry" />
        </mxCell>
        <mxCell id="uzaHLaAloiq683FSmLbI-40" value="Nome" style="shape=partialRectangle;connectable=0;fillColor=none;top=0;left=0;bottom=0;right=0;align=left;spacingLeft=6;overflow=hidden;fontSize=8;" parent="uzaHLaAloiq683FSmLbI-38" vertex="1">
          <mxGeometry x="30" width="80" height="30" as="geometry" />
        </mxCell>
        <mxCell id="uzaHLaAloiq683FSmLbI-41" value="" style="shape=partialRectangle;collapsible=0;dropTarget=0;pointerEvents=0;fillColor=none;top=0;left=0;bottom=0;right=0;points=[[0,0.5],[1,0.5]];portConstraint=eastwest;fontSize=8;" parent="uzaHLaAloiq683FSmLbI-34" vertex="1">
          <mxGeometry y="90" width="110" height="30" as="geometry" />
        </mxCell>
        <mxCell id="uzaHLaAloiq683FSmLbI-42" value="" style="shape=partialRectangle;connectable=0;fillColor=none;top=0;left=0;bottom=0;right=0;editable=1;overflow=hidden;fontSize=8;" parent="uzaHLaAloiq683FSmLbI-41" vertex="1">
          <mxGeometry width="30" height="30" as="geometry" />
        </mxCell>
        <mxCell id="uzaHLaAloiq683FSmLbI-43" value="end_logradouro" style="shape=partialRectangle;connectable=0;fillColor=none;top=0;left=0;bottom=0;right=0;align=left;spacingLeft=6;overflow=hidden;fontSize=8;" parent="uzaHLaAloiq683FSmLbI-41" vertex="1">
          <mxGeometry x="30" width="80" height="30" as="geometry" />
        </mxCell>
        <mxCell id="uzaHLaAloiq683FSmLbI-44" value="" style="shape=partialRectangle;collapsible=0;dropTarget=0;pointerEvents=0;fillColor=none;top=0;left=0;bottom=0;right=0;points=[[0,0.5],[1,0.5]];portConstraint=eastwest;fontSize=8;" parent="uzaHLaAloiq683FSmLbI-34" vertex="1">
          <mxGeometry y="120" width="110" height="30" as="geometry" />
        </mxCell>
        <mxCell id="uzaHLaAloiq683FSmLbI-45" value="" style="shape=partialRectangle;connectable=0;fillColor=none;top=0;left=0;bottom=0;right=0;editable=1;overflow=hidden;fontSize=8;" parent="uzaHLaAloiq683FSmLbI-44" vertex="1">
          <mxGeometry width="30" height="30" as="geometry" />
        </mxCell>
        <mxCell id="uzaHLaAloiq683FSmLbI-46" value="end_numero" style="shape=partialRectangle;connectable=0;fillColor=none;top=0;left=0;bottom=0;right=0;align=left;spacingLeft=6;overflow=hidden;fontSize=8;" parent="uzaHLaAloiq683FSmLbI-44" vertex="1">
          <mxGeometry x="30" width="80" height="30" as="geometry" />
        </mxCell>
        <mxCell id="uzaHLaAloiq683FSmLbI-48" value="" style="shape=partialRectangle;collapsible=0;dropTarget=0;pointerEvents=0;fillColor=none;top=0;left=0;bottom=0;right=0;points=[[0,0.5],[1,0.5]];portConstraint=eastwest;fontSize=8;" parent="uzaHLaAloiq683FSmLbI-34" vertex="1">
          <mxGeometry y="150" width="110" height="30" as="geometry" />
        </mxCell>
        <mxCell id="uzaHLaAloiq683FSmLbI-49" value="" style="shape=partialRectangle;connectable=0;fillColor=none;top=0;left=0;bottom=0;right=0;editable=1;overflow=hidden;fontSize=8;" parent="uzaHLaAloiq683FSmLbI-48" vertex="1">
          <mxGeometry width="30" height="30" as="geometry" />
        </mxCell>
        <mxCell id="uzaHLaAloiq683FSmLbI-50" value="end_complemento" style="shape=partialRectangle;connectable=0;fillColor=none;top=0;left=0;bottom=0;right=0;align=left;spacingLeft=6;overflow=hidden;fontSize=8;" parent="uzaHLaAloiq683FSmLbI-48" vertex="1">
          <mxGeometry x="30" width="80" height="30" as="geometry" />
        </mxCell>
        <mxCell id="uzaHLaAloiq683FSmLbI-51" value="" style="shape=partialRectangle;collapsible=0;dropTarget=0;pointerEvents=0;fillColor=none;top=0;left=0;bottom=0;right=0;points=[[0,0.5],[1,0.5]];portConstraint=eastwest;fontSize=8;" parent="uzaHLaAloiq683FSmLbI-34" vertex="1">
          <mxGeometry y="180" width="110" height="30" as="geometry" />
        </mxCell>
        <mxCell id="uzaHLaAloiq683FSmLbI-52" value="" style="shape=partialRectangle;connectable=0;fillColor=none;top=0;left=0;bottom=0;right=0;editable=1;overflow=hidden;fontSize=8;" parent="uzaHLaAloiq683FSmLbI-51" vertex="1">
          <mxGeometry width="30" height="30" as="geometry" />
        </mxCell>
        <mxCell id="uzaHLaAloiq683FSmLbI-53" value="end_bairro" style="shape=partialRectangle;connectable=0;fillColor=none;top=0;left=0;bottom=0;right=0;align=left;spacingLeft=6;overflow=hidden;fontSize=8;" parent="uzaHLaAloiq683FSmLbI-51" vertex="1">
          <mxGeometry x="30" width="80" height="30" as="geometry" />
        </mxCell>
        <mxCell id="uzaHLaAloiq683FSmLbI-54" value="" style="shape=partialRectangle;collapsible=0;dropTarget=0;pointerEvents=0;fillColor=none;top=0;left=0;bottom=0;right=0;points=[[0,0.5],[1,0.5]];portConstraint=eastwest;fontSize=8;" parent="uzaHLaAloiq683FSmLbI-34" vertex="1">
          <mxGeometry y="210" width="110" height="30" as="geometry" />
        </mxCell>
        <mxCell id="uzaHLaAloiq683FSmLbI-55" value="" style="shape=partialRectangle;connectable=0;fillColor=none;top=0;left=0;bottom=0;right=0;editable=1;overflow=hidden;fontSize=8;" parent="uzaHLaAloiq683FSmLbI-54" vertex="1">
          <mxGeometry width="30" height="30" as="geometry" />
        </mxCell>
        <mxCell id="uzaHLaAloiq683FSmLbI-56" value="end_cidade" style="shape=partialRectangle;connectable=0;fillColor=none;top=0;left=0;bottom=0;right=0;align=left;spacingLeft=6;overflow=hidden;fontSize=8;" parent="uzaHLaAloiq683FSmLbI-54" vertex="1">
          <mxGeometry x="30" width="80" height="30" as="geometry" />
        </mxCell>
        <mxCell id="uzaHLaAloiq683FSmLbI-57" value="" style="shape=partialRectangle;collapsible=0;dropTarget=0;pointerEvents=0;fillColor=none;top=0;left=0;bottom=0;right=0;points=[[0,0.5],[1,0.5]];portConstraint=eastwest;fontSize=8;" parent="uzaHLaAloiq683FSmLbI-34" vertex="1">
          <mxGeometry y="240" width="110" height="30" as="geometry" />
        </mxCell>
        <mxCell id="uzaHLaAloiq683FSmLbI-58" value="" style="shape=partialRectangle;connectable=0;fillColor=none;top=0;left=0;bottom=0;right=0;editable=1;overflow=hidden;fontSize=8;" parent="uzaHLaAloiq683FSmLbI-57" vertex="1">
          <mxGeometry width="30" height="30" as="geometry" />
        </mxCell>
        <mxCell id="uzaHLaAloiq683FSmLbI-59" value="end_UF" style="shape=partialRectangle;connectable=0;fillColor=none;top=0;left=0;bottom=0;right=0;align=left;spacingLeft=6;overflow=hidden;fontSize=8;" parent="uzaHLaAloiq683FSmLbI-57" vertex="1">
          <mxGeometry x="30" width="80" height="30" as="geometry" />
        </mxCell>
        <mxCell id="uzaHLaAloiq683FSmLbI-60" value="" style="shape=partialRectangle;collapsible=0;dropTarget=0;pointerEvents=0;fillColor=none;top=0;left=0;bottom=0;right=0;points=[[0,0.5],[1,0.5]];portConstraint=eastwest;fontSize=8;" parent="uzaHLaAloiq683FSmLbI-34" vertex="1">
          <mxGeometry y="270" width="110" height="30" as="geometry" />
        </mxCell>
        <mxCell id="uzaHLaAloiq683FSmLbI-61" value="" style="shape=partialRectangle;connectable=0;fillColor=none;top=0;left=0;bottom=0;right=0;editable=1;overflow=hidden;fontSize=8;" parent="uzaHLaAloiq683FSmLbI-60" vertex="1">
          <mxGeometry width="30" height="30" as="geometry" />
        </mxCell>
        <mxCell id="uzaHLaAloiq683FSmLbI-62" value="end_CEP" style="shape=partialRectangle;connectable=0;fillColor=none;top=0;left=0;bottom=0;right=0;align=left;spacingLeft=6;overflow=hidden;fontSize=8;" parent="uzaHLaAloiq683FSmLbI-60" vertex="1">
          <mxGeometry x="30" width="80" height="30" as="geometry" />
        </mxCell>
        <mxCell id="uzaHLaAloiq683FSmLbI-63" value="" style="shape=partialRectangle;collapsible=0;dropTarget=0;pointerEvents=0;fillColor=none;top=0;left=0;bottom=0;right=0;points=[[0,0.5],[1,0.5]];portConstraint=eastwest;fontSize=8;" parent="uzaHLaAloiq683FSmLbI-34" vertex="1">
          <mxGeometry y="300" width="110" height="30" as="geometry" />
        </mxCell>
        <mxCell id="uzaHLaAloiq683FSmLbI-64" value="" style="shape=partialRectangle;connectable=0;fillColor=none;top=0;left=0;bottom=0;right=0;editable=1;overflow=hidden;fontSize=8;" parent="uzaHLaAloiq683FSmLbI-63" vertex="1">
          <mxGeometry width="30" height="30" as="geometry" />
        </mxCell>
        <mxCell id="uzaHLaAloiq683FSmLbI-65" value="telefone" style="shape=partialRectangle;connectable=0;fillColor=none;top=0;left=0;bottom=0;right=0;align=left;spacingLeft=6;overflow=hidden;fontSize=8;" parent="uzaHLaAloiq683FSmLbI-63" vertex="1">
          <mxGeometry x="30" width="80" height="30" as="geometry" />
        </mxCell>
        <mxCell id="uzaHLaAloiq683FSmLbI-66" value="" style="shape=partialRectangle;collapsible=0;dropTarget=0;pointerEvents=0;fillColor=none;top=0;left=0;bottom=0;right=0;points=[[0,0.5],[1,0.5]];portConstraint=eastwest;fontSize=8;" parent="uzaHLaAloiq683FSmLbI-34" vertex="1">
          <mxGeometry y="330" width="110" height="30" as="geometry" />
        </mxCell>
        <mxCell id="uzaHLaAloiq683FSmLbI-67" value="" style="shape=partialRectangle;connectable=0;fillColor=none;top=0;left=0;bottom=0;right=0;editable=1;overflow=hidden;fontSize=8;" parent="uzaHLaAloiq683FSmLbI-66" vertex="1">
          <mxGeometry width="30" height="30" as="geometry" />
        </mxCell>
        <mxCell id="uzaHLaAloiq683FSmLbI-68" value="CPF" style="shape=partialRectangle;connectable=0;fillColor=none;top=0;left=0;bottom=0;right=0;align=left;spacingLeft=6;overflow=hidden;fontSize=8;" parent="uzaHLaAloiq683FSmLbI-66" vertex="1">
          <mxGeometry x="30" width="80" height="30" as="geometry" />
        </mxCell>
        <mxCell id="uzaHLaAloiq683FSmLbI-104" value="Funcionario" style="shape=table;startSize=30;container=1;collapsible=1;childLayout=tableLayout;fixedRows=1;rowLines=0;fontStyle=1;align=center;resizeLast=1;fontSize=8;" parent="1" vertex="1">
          <mxGeometry x="600" y="110" width="130" height="130" as="geometry">
            <mxRectangle x="600" y="110" width="120" height="30" as="alternateBounds" />
          </mxGeometry>
        </mxCell>
        <mxCell id="uzaHLaAloiq683FSmLbI-105" value="" style="shape=partialRectangle;collapsible=0;dropTarget=0;pointerEvents=0;fillColor=none;top=0;left=0;bottom=1;right=0;points=[[0,0.5],[1,0.5]];portConstraint=eastwest;fontSize=8;" parent="uzaHLaAloiq683FSmLbI-104" vertex="1">
          <mxGeometry y="30" width="130" height="30" as="geometry" />
        </mxCell>
        <mxCell id="uzaHLaAloiq683FSmLbI-106" value="PK" style="shape=partialRectangle;connectable=0;fillColor=none;top=0;left=0;bottom=0;right=0;fontStyle=1;overflow=hidden;fontSize=8;" parent="uzaHLaAloiq683FSmLbI-105" vertex="1">
          <mxGeometry width="30" height="30" as="geometry" />
        </mxCell>
        <mxCell id="uzaHLaAloiq683FSmLbI-107" value="Num_mat" style="shape=partialRectangle;connectable=0;fillColor=none;top=0;left=0;bottom=0;right=0;align=left;spacingLeft=6;fontStyle=5;overflow=hidden;fontSize=8;" parent="uzaHLaAloiq683FSmLbI-105" vertex="1">
          <mxGeometry x="30" width="100" height="30" as="geometry" />
        </mxCell>
        <mxCell id="uzaHLaAloiq683FSmLbI-108" value="" style="shape=partialRectangle;collapsible=0;dropTarget=0;pointerEvents=0;fillColor=none;top=0;left=0;bottom=0;right=0;points=[[0,0.5],[1,0.5]];portConstraint=eastwest;fontSize=8;" parent="uzaHLaAloiq683FSmLbI-104" vertex="1">
          <mxGeometry y="60" width="130" height="30" as="geometry" />
        </mxCell>
        <mxCell id="uzaHLaAloiq683FSmLbI-109" value="" style="shape=partialRectangle;connectable=0;fillColor=none;top=0;left=0;bottom=0;right=0;editable=1;overflow=hidden;fontSize=8;" parent="uzaHLaAloiq683FSmLbI-108" vertex="1">
          <mxGeometry width="30" height="30" as="geometry" />
        </mxCell>
        <mxCell id="uzaHLaAloiq683FSmLbI-110" value="Nome" style="shape=partialRectangle;connectable=0;fillColor=none;top=0;left=0;bottom=0;right=0;align=left;spacingLeft=6;overflow=hidden;fontSize=8;" parent="uzaHLaAloiq683FSmLbI-108" vertex="1">
          <mxGeometry x="30" width="100" height="30" as="geometry" />
        </mxCell>
        <mxCell id="uzaHLaAloiq683FSmLbI-111" value="" style="shape=partialRectangle;collapsible=0;dropTarget=0;pointerEvents=0;fillColor=none;top=0;left=0;bottom=0;right=0;points=[[0,0.5],[1,0.5]];portConstraint=eastwest;fontSize=8;" parent="uzaHLaAloiq683FSmLbI-104" vertex="1">
          <mxGeometry y="90" width="130" height="30" as="geometry" />
        </mxCell>
        <mxCell id="uzaHLaAloiq683FSmLbI-112" value="FK" style="shape=partialRectangle;connectable=0;fillColor=none;top=0;left=0;bottom=0;right=0;editable=1;overflow=hidden;fontSize=8;" parent="uzaHLaAloiq683FSmLbI-111" vertex="1">
          <mxGeometry width="30" height="30" as="geometry" />
        </mxCell>
        <mxCell id="uzaHLaAloiq683FSmLbI-113" value="Cod_departamento" style="shape=partialRectangle;connectable=0;fillColor=none;top=0;left=0;bottom=0;right=0;align=left;spacingLeft=6;overflow=hidden;fontSize=8;" parent="uzaHLaAloiq683FSmLbI-111" vertex="1">
          <mxGeometry x="30" width="100" height="30" as="geometry" />
        </mxCell>
        <mxCell id="JIwi4Zt-y48VCgLrM_P_-1" value="Autor" style="shape=table;startSize=30;container=1;collapsible=1;childLayout=tableLayout;fixedRows=1;rowLines=0;fontStyle=1;align=center;resizeLast=1;fontSize=8;" parent="1" vertex="1">
          <mxGeometry x="30" y="230" width="140" height="90" as="geometry" />
        </mxCell>
        <mxCell id="JIwi4Zt-y48VCgLrM_P_-2" value="" style="shape=partialRectangle;collapsible=0;dropTarget=0;pointerEvents=0;fillColor=none;top=0;left=0;bottom=1;right=0;points=[[0,0.5],[1,0.5]];portConstraint=eastwest;fontSize=8;" parent="JIwi4Zt-y48VCgLrM_P_-1" vertex="1">
          <mxGeometry y="30" width="140" height="30" as="geometry" />
        </mxCell>
        <mxCell id="JIwi4Zt-y48VCgLrM_P_-3" value="PK" style="shape=partialRectangle;connectable=0;fillColor=none;top=0;left=0;bottom=0;right=0;fontStyle=1;overflow=hidden;fontSize=8;" parent="JIwi4Zt-y48VCgLrM_P_-2" vertex="1">
          <mxGeometry width="30" height="30" as="geometry" />
        </mxCell>
        <mxCell id="JIwi4Zt-y48VCgLrM_P_-4" value="Cod_Autor" style="shape=partialRectangle;connectable=0;fillColor=none;top=0;left=0;bottom=0;right=0;align=left;spacingLeft=6;fontStyle=5;overflow=hidden;fontSize=8;" parent="JIwi4Zt-y48VCgLrM_P_-2" vertex="1">
          <mxGeometry x="30" width="110" height="30" as="geometry" />
        </mxCell>
        <mxCell id="JIwi4Zt-y48VCgLrM_P_-5" value="" style="shape=partialRectangle;collapsible=0;dropTarget=0;pointerEvents=0;fillColor=none;top=0;left=0;bottom=0;right=0;points=[[0,0.5],[1,0.5]];portConstraint=eastwest;fontSize=8;" parent="JIwi4Zt-y48VCgLrM_P_-1" vertex="1">
          <mxGeometry y="60" width="140" height="30" as="geometry" />
        </mxCell>
        <mxCell id="JIwi4Zt-y48VCgLrM_P_-6" value="" style="shape=partialRectangle;connectable=0;fillColor=none;top=0;left=0;bottom=0;right=0;editable=1;overflow=hidden;fontSize=8;" parent="JIwi4Zt-y48VCgLrM_P_-5" vertex="1">
          <mxGeometry width="30" height="30" as="geometry" />
        </mxCell>
        <mxCell id="JIwi4Zt-y48VCgLrM_P_-7" value="Nome_Autor" style="shape=partialRectangle;connectable=0;fillColor=none;top=0;left=0;bottom=0;right=0;align=left;spacingLeft=6;overflow=hidden;fontSize=8;" parent="JIwi4Zt-y48VCgLrM_P_-5" vertex="1">
          <mxGeometry x="30" width="110" height="30" as="geometry" />
        </mxCell>
        <mxCell id="JIwi4Zt-y48VCgLrM_P_-29" value="&lt;b style=&quot;font-size: 8px;&quot;&gt;TABELA BIBLIOTECA&amp;nbsp; MODELO DTR COMPLETO FORMATO DE TABELAS &lt;br style=&quot;font-size: 8px;&quot;&gt;AUTOR: IGO RODRIGUES CIRQUEIRA&lt;/b&gt;" style="text;html=1;strokeColor=none;fillColor=none;align=center;verticalAlign=middle;whiteSpace=wrap;rounded=0;fontSize=8;" parent="1" vertex="1">
          <mxGeometry x="180" y="10" width="550" height="20" as="geometry" />
        </mxCell>
        <mxCell id="uzaHLaAloiq683FSmLbI-1" value="Obra_Autor" style="shape=table;startSize=30;container=1;collapsible=1;childLayout=tableLayout;fixedRows=1;rowLines=0;fontStyle=1;align=center;resizeLast=1;fontSize=8;" parent="1" vertex="1">
          <mxGeometry x="60" y="430" width="100" height="120" as="geometry">
            <mxRectangle x="80" y="640" width="70" height="30" as="alternateBounds" />
          </mxGeometry>
        </mxCell>
        <mxCell id="uzaHLaAloiq683FSmLbI-2" value="" style="shape=partialRectangle;collapsible=0;dropTarget=0;pointerEvents=0;fillColor=none;top=0;left=0;bottom=1;right=0;points=[[0,0.5],[1,0.5]];portConstraint=eastwest;fontSize=8;" parent="uzaHLaAloiq683FSmLbI-1" vertex="1">
          <mxGeometry y="30" width="100" height="30" as="geometry" />
        </mxCell>
        <mxCell id="uzaHLaAloiq683FSmLbI-3" value="PK FK" style="shape=partialRectangle;connectable=0;fillColor=none;top=0;left=0;bottom=0;right=0;fontStyle=1;overflow=hidden;fontSize=8;" parent="uzaHLaAloiq683FSmLbI-2" vertex="1">
          <mxGeometry width="30" height="30" as="geometry" />
        </mxCell>
        <mxCell id="uzaHLaAloiq683FSmLbI-4" value="Cod_Obra" style="shape=partialRectangle;connectable=0;fillColor=none;top=0;left=0;bottom=0;right=0;align=left;spacingLeft=6;fontStyle=5;overflow=hidden;fontSize=8;" parent="uzaHLaAloiq683FSmLbI-2" vertex="1">
          <mxGeometry x="30" width="70" height="30" as="geometry" />
        </mxCell>
        <mxCell id="uzaHLaAloiq683FSmLbI-5" value="" style="shape=partialRectangle;collapsible=0;dropTarget=0;pointerEvents=0;fillColor=none;top=0;left=0;bottom=0;right=0;points=[[0,0.5],[1,0.5]];portConstraint=eastwest;fontSize=8;" parent="uzaHLaAloiq683FSmLbI-1" vertex="1">
          <mxGeometry y="60" width="100" height="30" as="geometry" />
        </mxCell>
        <mxCell id="uzaHLaAloiq683FSmLbI-6" value="PK FK" style="shape=partialRectangle;connectable=0;fillColor=none;top=0;left=0;bottom=0;right=0;editable=1;overflow=hidden;fontSize=8;" parent="uzaHLaAloiq683FSmLbI-5" vertex="1">
          <mxGeometry width="30" height="30" as="geometry" />
        </mxCell>
        <mxCell id="uzaHLaAloiq683FSmLbI-7" value="Cod_Autor" style="shape=partialRectangle;connectable=0;fillColor=none;top=0;left=0;bottom=0;right=0;align=left;spacingLeft=6;overflow=hidden;fontSize=8;" parent="uzaHLaAloiq683FSmLbI-5" vertex="1">
          <mxGeometry x="30" width="70" height="30" as="geometry" />
        </mxCell>
        <mxCell id="uzaHLaAloiq683FSmLbI-8" value="" style="shape=partialRectangle;collapsible=0;dropTarget=0;pointerEvents=0;fillColor=none;top=0;left=0;bottom=0;right=0;points=[[0,0.5],[1,0.5]];portConstraint=eastwest;fontSize=8;" parent="uzaHLaAloiq683FSmLbI-1" vertex="1">
          <mxGeometry y="90" width="100" height="30" as="geometry" />
        </mxCell>
        <mxCell id="uzaHLaAloiq683FSmLbI-9" value="" style="shape=partialRectangle;connectable=0;fillColor=none;top=0;left=0;bottom=0;right=0;editable=1;overflow=hidden;fontSize=8;" parent="uzaHLaAloiq683FSmLbI-8" vertex="1">
          <mxGeometry width="30" height="30" as="geometry" />
        </mxCell>
        <mxCell id="uzaHLaAloiq683FSmLbI-10" value="Ordem" style="shape=partialRectangle;connectable=0;fillColor=none;top=0;left=0;bottom=0;right=0;align=left;spacingLeft=6;overflow=hidden;fontSize=8;" parent="uzaHLaAloiq683FSmLbI-8" vertex="1">
          <mxGeometry x="30" width="70" height="30" as="geometry" />
        </mxCell>
        <mxCell id="uzaHLaAloiq683FSmLbI-23" value="Editora" style="shape=table;startSize=30;container=1;collapsible=1;childLayout=tableLayout;fixedRows=1;rowLines=0;fontStyle=1;align=center;resizeLast=1;fontSize=8;" parent="1" vertex="1">
          <mxGeometry x="250" y="950" width="90" height="120" as="geometry">
            <mxRectangle x="400" y="640" width="70" height="30" as="alternateBounds" />
          </mxGeometry>
        </mxCell>
        <mxCell id="uzaHLaAloiq683FSmLbI-24" value="" style="shape=partialRectangle;collapsible=0;dropTarget=0;pointerEvents=0;fillColor=none;top=0;left=0;bottom=1;right=0;points=[[0,0.5],[1,0.5]];portConstraint=eastwest;fontSize=8;" parent="uzaHLaAloiq683FSmLbI-23" vertex="1">
          <mxGeometry y="30" width="90" height="30" as="geometry" />
        </mxCell>
        <mxCell id="uzaHLaAloiq683FSmLbI-25" value="PK" style="shape=partialRectangle;connectable=0;fillColor=none;top=0;left=0;bottom=0;right=0;fontStyle=1;overflow=hidden;fontSize=8;" parent="uzaHLaAloiq683FSmLbI-24" vertex="1">
          <mxGeometry width="30" height="30" as="geometry" />
        </mxCell>
        <mxCell id="uzaHLaAloiq683FSmLbI-26" value="Cod_editora" style="shape=partialRectangle;connectable=0;fillColor=none;top=0;left=0;bottom=0;right=0;align=left;spacingLeft=6;fontStyle=5;overflow=hidden;fontSize=8;" parent="uzaHLaAloiq683FSmLbI-24" vertex="1">
          <mxGeometry x="30" width="60" height="30" as="geometry" />
        </mxCell>
        <mxCell id="uzaHLaAloiq683FSmLbI-27" value="" style="shape=partialRectangle;collapsible=0;dropTarget=0;pointerEvents=0;fillColor=none;top=0;left=0;bottom=0;right=0;points=[[0,0.5],[1,0.5]];portConstraint=eastwest;fontSize=8;" parent="uzaHLaAloiq683FSmLbI-23" vertex="1">
          <mxGeometry y="60" width="90" height="30" as="geometry" />
        </mxCell>
        <mxCell id="uzaHLaAloiq683FSmLbI-28" value="" style="shape=partialRectangle;connectable=0;fillColor=none;top=0;left=0;bottom=0;right=0;editable=1;overflow=hidden;fontSize=8;" parent="uzaHLaAloiq683FSmLbI-27" vertex="1">
          <mxGeometry width="30" height="30" as="geometry" />
        </mxCell>
        <mxCell id="uzaHLaAloiq683FSmLbI-29" value="Nome_editora" style="shape=partialRectangle;connectable=0;fillColor=none;top=0;left=0;bottom=0;right=0;align=left;spacingLeft=6;overflow=hidden;fontSize=8;" parent="uzaHLaAloiq683FSmLbI-27" vertex="1">
          <mxGeometry x="30" width="60" height="30" as="geometry" />
        </mxCell>
        <mxCell id="uzaHLaAloiq683FSmLbI-30" value="" style="shape=partialRectangle;collapsible=0;dropTarget=0;pointerEvents=0;fillColor=none;top=0;left=0;bottom=0;right=0;points=[[0,0.5],[1,0.5]];portConstraint=eastwest;fontSize=8;" parent="uzaHLaAloiq683FSmLbI-23" vertex="1">
          <mxGeometry y="90" width="90" height="30" as="geometry" />
        </mxCell>
        <mxCell id="uzaHLaAloiq683FSmLbI-31" value="" style="shape=partialRectangle;connectable=0;fillColor=none;top=0;left=0;bottom=0;right=0;editable=1;overflow=hidden;fontSize=8;" parent="uzaHLaAloiq683FSmLbI-30" vertex="1">
          <mxGeometry width="30" height="30" as="geometry" />
        </mxCell>
        <mxCell id="uzaHLaAloiq683FSmLbI-32" value="Cidade" style="shape=partialRectangle;connectable=0;fillColor=none;top=0;left=0;bottom=0;right=0;align=left;spacingLeft=6;overflow=hidden;fontSize=8;" parent="uzaHLaAloiq683FSmLbI-30" vertex="1">
          <mxGeometry x="30" width="60" height="30" as="geometry" />
        </mxCell>
        <mxCell id="4qhFQr76ofjWPNA47JDN-3" value="Obra" style="shape=table;startSize=30;container=1;collapsible=1;childLayout=tableLayout;fixedRows=1;rowLines=0;fontStyle=1;align=center;resizeLast=1;fontSize=8;" vertex="1" parent="1">
          <mxGeometry x="260" y="380" width="100" height="190" as="geometry">
            <mxRectangle x="80" y="640" width="70" height="30" as="alternateBounds" />
          </mxGeometry>
        </mxCell>
        <mxCell id="4qhFQr76ofjWPNA47JDN-4" value="" style="shape=partialRectangle;collapsible=0;dropTarget=0;pointerEvents=0;fillColor=none;top=0;left=0;bottom=1;right=0;points=[[0,0.5],[1,0.5]];portConstraint=eastwest;fontSize=8;" vertex="1" parent="4qhFQr76ofjWPNA47JDN-3">
          <mxGeometry y="30" width="100" height="30" as="geometry" />
        </mxCell>
        <mxCell id="4qhFQr76ofjWPNA47JDN-5" value="PK" style="shape=partialRectangle;connectable=0;fillColor=none;top=0;left=0;bottom=0;right=0;fontStyle=1;overflow=hidden;fontSize=8;" vertex="1" parent="4qhFQr76ofjWPNA47JDN-4">
          <mxGeometry width="30" height="30" as="geometry" />
        </mxCell>
        <mxCell id="4qhFQr76ofjWPNA47JDN-6" value="Cod_Obra" style="shape=partialRectangle;connectable=0;fillColor=none;top=0;left=0;bottom=0;right=0;align=left;spacingLeft=6;fontStyle=5;overflow=hidden;fontSize=8;" vertex="1" parent="4qhFQr76ofjWPNA47JDN-4">
          <mxGeometry x="30" width="70" height="30" as="geometry" />
        </mxCell>
        <mxCell id="4qhFQr76ofjWPNA47JDN-7" value="" style="shape=partialRectangle;collapsible=0;dropTarget=0;pointerEvents=0;fillColor=none;top=0;left=0;bottom=0;right=0;points=[[0,0.5],[1,0.5]];portConstraint=eastwest;fontSize=8;" vertex="1" parent="4qhFQr76ofjWPNA47JDN-3">
          <mxGeometry y="60" width="100" height="30" as="geometry" />
        </mxCell>
        <mxCell id="4qhFQr76ofjWPNA47JDN-8" value="" style="shape=partialRectangle;connectable=0;fillColor=none;top=0;left=0;bottom=0;right=0;editable=1;overflow=hidden;fontSize=8;" vertex="1" parent="4qhFQr76ofjWPNA47JDN-7">
          <mxGeometry width="30" height="30" as="geometry" />
        </mxCell>
        <mxCell id="4qhFQr76ofjWPNA47JDN-9" value="TÃ­tulo" style="shape=partialRectangle;connectable=0;fillColor=none;top=0;left=0;bottom=0;right=0;align=left;spacingLeft=6;overflow=hidden;fontSize=8;" vertex="1" parent="4qhFQr76ofjWPNA47JDN-7">
          <mxGeometry x="30" width="70" height="30" as="geometry" />
        </mxCell>
        <mxCell id="4qhFQr76ofjWPNA47JDN-13" value="" style="shape=partialRectangle;collapsible=0;dropTarget=0;pointerEvents=0;fillColor=none;top=0;left=0;bottom=0;right=0;points=[[0,0.5],[1,0.5]];portConstraint=eastwest;fontSize=8;" vertex="1" parent="4qhFQr76ofjWPNA47JDN-3">
          <mxGeometry y="90" width="100" height="30" as="geometry" />
        </mxCell>
        <mxCell id="4qhFQr76ofjWPNA47JDN-14" value="FK" style="shape=partialRectangle;connectable=0;fillColor=none;top=0;left=0;bottom=0;right=0;editable=1;overflow=hidden;fontSize=8;" vertex="1" parent="4qhFQr76ofjWPNA47JDN-13">
          <mxGeometry width="30" height="30" as="geometry" />
        </mxCell>
        <mxCell id="4qhFQr76ofjWPNA47JDN-15" value="Ano_Publicacao" style="shape=partialRectangle;connectable=0;fillColor=none;top=0;left=0;bottom=0;right=0;align=left;spacingLeft=6;overflow=hidden;fontSize=8;" vertex="1" parent="4qhFQr76ofjWPNA47JDN-13">
          <mxGeometry x="30" width="70" height="30" as="geometry" />
        </mxCell>
        <mxCell id="4qhFQr76ofjWPNA47JDN-19" value="" style="shape=partialRectangle;collapsible=0;dropTarget=0;pointerEvents=0;fillColor=none;top=0;left=0;bottom=0;right=0;points=[[0,0.5],[1,0.5]];portConstraint=eastwest;fontSize=8;" vertex="1" parent="4qhFQr76ofjWPNA47JDN-3">
          <mxGeometry y="120" width="100" height="30" as="geometry" />
        </mxCell>
        <mxCell id="4qhFQr76ofjWPNA47JDN-20" value="" style="shape=partialRectangle;connectable=0;fillColor=none;top=0;left=0;bottom=0;right=0;editable=1;overflow=hidden;fontSize=8;" vertex="1" parent="4qhFQr76ofjWPNA47JDN-19">
          <mxGeometry width="30" height="30" as="geometry" />
        </mxCell>
        <mxCell id="4qhFQr76ofjWPNA47JDN-21" value="Tipo_obra" style="shape=partialRectangle;connectable=0;fillColor=none;top=0;left=0;bottom=0;right=0;align=left;spacingLeft=6;overflow=hidden;fontSize=8;" vertex="1" parent="4qhFQr76ofjWPNA47JDN-19">
          <mxGeometry x="30" width="70" height="30" as="geometry" />
        </mxCell>
        <mxCell id="4qhFQr76ofjWPNA47JDN-22" value="" style="shape=partialRectangle;collapsible=0;dropTarget=0;pointerEvents=0;fillColor=none;top=0;left=0;bottom=0;right=0;points=[[0,0.5],[1,0.5]];portConstraint=eastwest;fontSize=8;" vertex="1" parent="4qhFQr76ofjWPNA47JDN-3">
          <mxGeometry y="150" width="100" height="30" as="geometry" />
        </mxCell>
        <mxCell id="4qhFQr76ofjWPNA47JDN-23" value="FK" style="shape=partialRectangle;connectable=0;fillColor=none;top=0;left=0;bottom=0;right=0;editable=1;overflow=hidden;fontSize=8;" vertex="1" parent="4qhFQr76ofjWPNA47JDN-22">
          <mxGeometry width="30" height="30" as="geometry" />
        </mxCell>
        <mxCell id="4qhFQr76ofjWPNA47JDN-24" value="Cod_Editora" style="shape=partialRectangle;connectable=0;fillColor=none;top=0;left=0;bottom=0;right=0;align=left;spacingLeft=6;overflow=hidden;fontSize=8;" vertex="1" parent="4qhFQr76ofjWPNA47JDN-22">
          <mxGeometry x="30" width="70" height="30" as="geometry" />
        </mxCell>
        <mxCell id="JIwi4Zt-y48VCgLrM_P_-14" value="Obra_Assunto" style="shape=table;startSize=30;container=1;collapsible=1;childLayout=tableLayout;fixedRows=1;rowLines=0;fontStyle=1;align=center;resizeLast=1;fontSize=8;" parent="1" vertex="1">
          <mxGeometry x="55" y="780" width="114.99999999999994" height="90" as="geometry" />
        </mxCell>
        <mxCell id="JIwi4Zt-y48VCgLrM_P_-15" value="" style="shape=partialRectangle;collapsible=0;dropTarget=0;pointerEvents=0;fillColor=none;top=0;left=0;bottom=1;right=0;points=[[0,0.5],[1,0.5]];portConstraint=eastwest;fontSize=8;" parent="JIwi4Zt-y48VCgLrM_P_-14" vertex="1">
          <mxGeometry y="30" width="114.99999999999994" height="30" as="geometry" />
        </mxCell>
        <mxCell id="JIwi4Zt-y48VCgLrM_P_-16" value="PK FK" style="shape=partialRectangle;connectable=0;fillColor=none;top=0;left=0;bottom=0;right=0;fontStyle=1;overflow=hidden;fontSize=8;" parent="JIwi4Zt-y48VCgLrM_P_-15" vertex="1">
          <mxGeometry width="30" height="30" as="geometry" />
        </mxCell>
        <mxCell id="JIwi4Zt-y48VCgLrM_P_-17" value="Cod_Obra" style="shape=partialRectangle;connectable=0;fillColor=none;top=0;left=0;bottom=0;right=0;align=left;spacingLeft=6;fontStyle=5;overflow=hidden;fontSize=8;" parent="JIwi4Zt-y48VCgLrM_P_-15" vertex="1">
          <mxGeometry x="30" width="84.99999999999994" height="30" as="geometry" />
        </mxCell>
        <mxCell id="JIwi4Zt-y48VCgLrM_P_-18" value="" style="shape=partialRectangle;collapsible=0;dropTarget=0;pointerEvents=0;fillColor=none;top=0;left=0;bottom=0;right=0;points=[[0,0.5],[1,0.5]];portConstraint=eastwest;fontSize=8;" parent="JIwi4Zt-y48VCgLrM_P_-14" vertex="1">
          <mxGeometry y="60" width="114.99999999999994" height="30" as="geometry" />
        </mxCell>
        <mxCell id="JIwi4Zt-y48VCgLrM_P_-19" value="PK FK" style="shape=partialRectangle;connectable=0;fillColor=none;top=0;left=0;bottom=0;right=0;editable=1;overflow=hidden;fontSize=8;" parent="JIwi4Zt-y48VCgLrM_P_-18" vertex="1">
          <mxGeometry width="30" height="30" as="geometry" />
        </mxCell>
        <mxCell id="JIwi4Zt-y48VCgLrM_P_-20" value="Cod_Assunto" style="shape=partialRectangle;connectable=0;fillColor=none;top=0;left=0;bottom=0;right=0;align=left;spacingLeft=6;overflow=hidden;fontSize=8;" parent="JIwi4Zt-y48VCgLrM_P_-18" vertex="1">
          <mxGeometry x="30" width="84.99999999999994" height="30" as="geometry" />
        </mxCell>
        <mxCell id="uzaHLaAloiq683FSmLbI-130" value="Reserva" style="shape=table;startSize=30;container=1;collapsible=1;childLayout=tableLayout;fixedRows=1;rowLines=0;fontStyle=1;align=center;resizeLast=1;fontSize=8;" parent="1" vertex="1">
          <mxGeometry x="435" y="850" width="110" height="220" as="geometry">
            <mxRectangle x="400" y="840" width="90" height="30" as="alternateBounds" />
          </mxGeometry>
        </mxCell>
        <mxCell id="uzaHLaAloiq683FSmLbI-131" value="" style="shape=partialRectangle;collapsible=0;dropTarget=0;pointerEvents=0;fillColor=none;top=0;left=0;bottom=1;right=0;points=[[0,0.5],[1,0.5]];portConstraint=eastwest;fontSize=8;" parent="uzaHLaAloiq683FSmLbI-130" vertex="1">
          <mxGeometry y="30" width="110" height="30" as="geometry" />
        </mxCell>
        <mxCell id="uzaHLaAloiq683FSmLbI-132" value="PK" style="shape=partialRectangle;connectable=0;fillColor=none;top=0;left=0;bottom=0;right=0;fontStyle=1;overflow=hidden;fontSize=8;" parent="uzaHLaAloiq683FSmLbI-131" vertex="1">
          <mxGeometry width="30" height="30" as="geometry" />
        </mxCell>
        <mxCell id="uzaHLaAloiq683FSmLbI-133" value="Cod_reserva" style="shape=partialRectangle;connectable=0;fillColor=none;top=0;left=0;bottom=0;right=0;align=left;spacingLeft=6;fontStyle=5;overflow=hidden;fontSize=8;" parent="uzaHLaAloiq683FSmLbI-131" vertex="1">
          <mxGeometry x="30" width="80" height="30" as="geometry" />
        </mxCell>
        <mxCell id="uzaHLaAloiq683FSmLbI-134" value="" style="shape=partialRectangle;collapsible=0;dropTarget=0;pointerEvents=0;fillColor=none;top=0;left=0;bottom=0;right=0;points=[[0,0.5],[1,0.5]];portConstraint=eastwest;fontSize=8;" parent="uzaHLaAloiq683FSmLbI-130" vertex="1">
          <mxGeometry y="60" width="110" height="30" as="geometry" />
        </mxCell>
        <mxCell id="uzaHLaAloiq683FSmLbI-135" value="FK" style="shape=partialRectangle;connectable=0;fillColor=none;top=0;left=0;bottom=0;right=0;editable=1;overflow=hidden;fontSize=8;" parent="uzaHLaAloiq683FSmLbI-134" vertex="1">
          <mxGeometry width="30" height="30" as="geometry" />
        </mxCell>
        <mxCell id="uzaHLaAloiq683FSmLbI-136" value="Cod_usuario" style="shape=partialRectangle;connectable=0;fillColor=none;top=0;left=0;bottom=0;right=0;align=left;spacingLeft=6;overflow=hidden;fontSize=8;" parent="uzaHLaAloiq683FSmLbI-134" vertex="1">
          <mxGeometry x="30" width="80" height="30" as="geometry" />
        </mxCell>
        <mxCell id="uzaHLaAloiq683FSmLbI-137" value="" style="shape=partialRectangle;collapsible=0;dropTarget=0;pointerEvents=0;fillColor=none;top=0;left=0;bottom=0;right=0;points=[[0,0.5],[1,0.5]];portConstraint=eastwest;fontSize=8;" parent="uzaHLaAloiq683FSmLbI-130" vertex="1">
          <mxGeometry y="90" width="110" height="30" as="geometry" />
        </mxCell>
        <mxCell id="uzaHLaAloiq683FSmLbI-138" value="FK" style="shape=partialRectangle;connectable=0;fillColor=none;top=0;left=0;bottom=0;right=0;editable=1;overflow=hidden;fontSize=8;" parent="uzaHLaAloiq683FSmLbI-137" vertex="1">
          <mxGeometry width="30" height="30" as="geometry" />
        </mxCell>
        <mxCell id="uzaHLaAloiq683FSmLbI-139" value="Cod_Obra" style="shape=partialRectangle;connectable=0;fillColor=none;top=0;left=0;bottom=0;right=0;align=left;spacingLeft=6;overflow=hidden;fontSize=8;" parent="uzaHLaAloiq683FSmLbI-137" vertex="1">
          <mxGeometry x="30" width="80" height="30" as="geometry" />
        </mxCell>
        <mxCell id="uzaHLaAloiq683FSmLbI-140" value="" style="shape=partialRectangle;collapsible=0;dropTarget=0;pointerEvents=0;fillColor=none;top=0;left=0;bottom=0;right=0;points=[[0,0.5],[1,0.5]];portConstraint=eastwest;fontSize=8;" parent="uzaHLaAloiq683FSmLbI-130" vertex="1">
          <mxGeometry y="120" width="110" height="30" as="geometry" />
        </mxCell>
        <mxCell id="uzaHLaAloiq683FSmLbI-141" value="" style="shape=partialRectangle;connectable=0;fillColor=none;top=0;left=0;bottom=0;right=0;editable=1;overflow=hidden;fontSize=8;" parent="uzaHLaAloiq683FSmLbI-140" vertex="1">
          <mxGeometry width="30" height="30" as="geometry" />
        </mxCell>
        <mxCell id="uzaHLaAloiq683FSmLbI-142" value="data_reserva" style="shape=partialRectangle;connectable=0;fillColor=none;top=0;left=0;bottom=0;right=0;align=left;spacingLeft=6;overflow=hidden;fontSize=8;" parent="uzaHLaAloiq683FSmLbI-140" vertex="1">
          <mxGeometry x="30" width="80" height="30" as="geometry" />
        </mxCell>
        <mxCell id="uzaHLaAloiq683FSmLbI-143" value="" style="shape=partialRectangle;collapsible=0;dropTarget=0;pointerEvents=0;fillColor=none;top=0;left=0;bottom=0;right=0;points=[[0,0.5],[1,0.5]];portConstraint=eastwest;fontSize=8;" parent="uzaHLaAloiq683FSmLbI-130" vertex="1">
          <mxGeometry y="150" width="110" height="30" as="geometry" />
        </mxCell>
        <mxCell id="uzaHLaAloiq683FSmLbI-144" value="" style="shape=partialRectangle;connectable=0;fillColor=none;top=0;left=0;bottom=0;right=0;editable=1;overflow=hidden;fontSize=8;" parent="uzaHLaAloiq683FSmLbI-143" vertex="1">
          <mxGeometry width="30" height="30" as="geometry" />
        </mxCell>
        <mxCell id="uzaHLaAloiq683FSmLbI-145" value="horario_reserva" style="shape=partialRectangle;connectable=0;fillColor=none;top=0;left=0;bottom=0;right=0;align=left;spacingLeft=6;overflow=hidden;fontSize=8;" parent="uzaHLaAloiq683FSmLbI-143" vertex="1">
          <mxGeometry x="30" width="80" height="30" as="geometry" />
        </mxCell>
        <mxCell id="uzaHLaAloiq683FSmLbI-146" value="" style="shape=partialRectangle;collapsible=0;dropTarget=0;pointerEvents=0;fillColor=none;top=0;left=0;bottom=0;right=0;points=[[0,0.5],[1,0.5]];portConstraint=eastwest;fontSize=8;" parent="uzaHLaAloiq683FSmLbI-130" vertex="1">
          <mxGeometry y="180" width="110" height="30" as="geometry" />
        </mxCell>
        <mxCell id="uzaHLaAloiq683FSmLbI-147" value="" style="shape=partialRectangle;connectable=0;fillColor=none;top=0;left=0;bottom=0;right=0;editable=1;overflow=hidden;fontSize=8;" parent="uzaHLaAloiq683FSmLbI-146" vertex="1">
          <mxGeometry width="30" height="30" as="geometry" />
        </mxCell>
        <mxCell id="uzaHLaAloiq683FSmLbI-148" value="data_retirada" style="shape=partialRectangle;connectable=0;fillColor=none;top=0;left=0;bottom=0;right=0;align=left;spacingLeft=6;overflow=hidden;fontSize=8;" parent="uzaHLaAloiq683FSmLbI-146" vertex="1">
          <mxGeometry x="30" width="80" height="30" as="geometry" />
        </mxCell>
        <mxCell id="4qhFQr76ofjWPNA47JDN-35" value="" style="fontSize=8;html=1;endArrow=ERzeroToMany;startArrow=ERone;endSize=8;targetPerimeterSpacing=2;sourcePerimeterSpacing=2;startSize=8;startFill=0;exitX=0.529;exitY=1.114;exitDx=0;exitDy=0;exitPerimeter=0;entryX=0.574;entryY=0;entryDx=0;entryDy=0;entryPerimeter=0;" edge="1" parent="1" source="uzaHLaAloiq683FSmLbI-66" target="uzaHLaAloiq683FSmLbI-130">
          <mxGeometry width="100" height="100" relative="1" as="geometry">
            <mxPoint x="495" y="850" as="sourcePoint" />
            <mxPoint x="440" y="790" as="targetPoint" />
          </mxGeometry>
        </mxCell>
        <mxCell id="4qhFQr76ofjWPNA47JDN-36" value="" style="fontSize=8;html=1;endArrow=ERzeroToMany;startArrow=ERone;endSize=8;targetPerimeterSpacing=2;sourcePerimeterSpacing=2;startSize=8;startFill=0;exitX=0.604;exitY=-0.022;exitDx=0;exitDy=0;exitPerimeter=0;" edge="1" parent="1" source="4qhFQr76ofjWPNA47JDN-25" target="JIwi4Zt-y48VCgLrM_P_-18">
          <mxGeometry width="100" height="100" relative="1" as="geometry">
            <mxPoint x="112" y="963" as="sourcePoint" />
            <mxPoint x="180" y="663" as="targetPoint" />
          </mxGeometry>
        </mxCell>
        <mxCell id="4qhFQr76ofjWPNA47JDN-25" value="Assunto" style="shape=table;startSize=30;container=1;collapsible=1;childLayout=tableLayout;fixedRows=1;rowLines=0;fontStyle=1;align=center;resizeLast=1;fontSize=8;" vertex="1" parent="1">
          <mxGeometry x="55" y="965" width="95" height="90" as="geometry" />
        </mxCell>
        <mxCell id="4qhFQr76ofjWPNA47JDN-26" value="" style="shape=partialRectangle;collapsible=0;dropTarget=0;pointerEvents=0;fillColor=none;top=0;left=0;bottom=1;right=0;points=[[0,0.5],[1,0.5]];portConstraint=eastwest;fontSize=8;" vertex="1" parent="4qhFQr76ofjWPNA47JDN-25">
          <mxGeometry y="30" width="95" height="30" as="geometry" />
        </mxCell>
        <mxCell id="4qhFQr76ofjWPNA47JDN-27" value="PK" style="shape=partialRectangle;connectable=0;fillColor=none;top=0;left=0;bottom=0;right=0;fontStyle=1;overflow=hidden;fontSize=8;" vertex="1" parent="4qhFQr76ofjWPNA47JDN-26">
          <mxGeometry width="30" height="30" as="geometry" />
        </mxCell>
        <mxCell id="4qhFQr76ofjWPNA47JDN-28" value="Cod_Assunto" style="shape=partialRectangle;connectable=0;fillColor=none;top=0;left=0;bottom=0;right=0;align=left;spacingLeft=6;fontStyle=5;overflow=hidden;fontSize=8;" vertex="1" parent="4qhFQr76ofjWPNA47JDN-26">
          <mxGeometry x="30" width="65" height="30" as="geometry" />
        </mxCell>
        <mxCell id="4qhFQr76ofjWPNA47JDN-32" value="" style="shape=partialRectangle;collapsible=0;dropTarget=0;pointerEvents=0;fillColor=none;top=0;left=0;bottom=0;right=0;points=[[0,0.5],[1,0.5]];portConstraint=eastwest;fontSize=8;" vertex="1" parent="4qhFQr76ofjWPNA47JDN-25">
          <mxGeometry y="60" width="95" height="30" as="geometry" />
        </mxCell>
        <mxCell id="4qhFQr76ofjWPNA47JDN-33" value="" style="shape=partialRectangle;connectable=0;fillColor=none;top=0;left=0;bottom=0;right=0;editable=1;overflow=hidden;fontSize=8;" vertex="1" parent="4qhFQr76ofjWPNA47JDN-32">
          <mxGeometry width="30" height="30" as="geometry" />
        </mxCell>
        <mxCell id="4qhFQr76ofjWPNA47JDN-34" value="Descricao" style="shape=partialRectangle;connectable=0;fillColor=none;top=0;left=0;bottom=0;right=0;align=left;spacingLeft=6;overflow=hidden;fontSize=8;" vertex="1" parent="4qhFQr76ofjWPNA47JDN-32">
          <mxGeometry x="30" width="65" height="30" as="geometry" />
        </mxCell>
        <mxCell id="4qhFQr76ofjWPNA47JDN-37" value="" style="fontSize=8;html=1;endArrow=ERzeroToMany;startArrow=ERone;endSize=8;targetPerimeterSpacing=2;sourcePerimeterSpacing=2;startSize=8;startFill=0;exitX=0.722;exitY=-0.001;exitDx=0;exitDy=0;entryX=0.75;entryY=1;entryDx=0;entryDy=0;exitPerimeter=0;" edge="1" parent="1" source="uzaHLaAloiq683FSmLbI-34" target="uzaHLaAloiq683FSmLbI-69">
          <mxGeometry width="100" height="100" relative="1" as="geometry">
            <mxPoint x="400.05000000000007" y="570.0000000000001" as="sourcePoint" />
            <mxPoint x="400.0000000000001" y="686.58" as="targetPoint" />
          </mxGeometry>
        </mxCell>
        <mxCell id="4qhFQr76ofjWPNA47JDN-38" value="" style="fontSize=8;html=1;endArrow=ERzeroToMany;startArrow=ERone;endSize=8;targetPerimeterSpacing=2;sourcePerimeterSpacing=2;startSize=8;startFill=0;entryX=0.25;entryY=1;entryDx=0;entryDy=0;edgeStyle=orthogonalEdgeStyle;exitX=0.75;exitY=0;exitDx=0;exitDy=0;" edge="1" parent="1" source="4qhFQr76ofjWPNA47JDN-3" target="uzaHLaAloiq683FSmLbI-69">
          <mxGeometry width="100" height="100" relative="1" as="geometry">
            <mxPoint x="370" y="400" as="sourcePoint" />
            <mxPoint x="390.58" y="339.9999999999999" as="targetPoint" />
            <Array as="points">
              <mxPoint x="335" y="360" />
              <mxPoint x="460" y="360" />
            </Array>
          </mxGeometry>
        </mxCell>
        <mxCell id="4qhFQr76ofjWPNA47JDN-39" value="" style="fontSize=8;html=1;endArrow=ERzeroToMany;startArrow=ERone;endSize=8;targetPerimeterSpacing=2;sourcePerimeterSpacing=2;startSize=8;startFill=0;entryX=0.385;entryY=1.333;entryDx=0;entryDy=0;entryPerimeter=0;" edge="1" parent="1" target="uzaHLaAloiq683FSmLbI-111">
          <mxGeometry width="100" height="100" relative="1" as="geometry">
            <mxPoint x="650" y="310" as="sourcePoint" />
            <mxPoint x="630" y="780" as="targetPoint" />
          </mxGeometry>
        </mxCell>
        <mxCell id="4qhFQr76ofjWPNA47JDN-40" value="" style="fontSize=8;html=1;endArrow=ERzeroToMany;startArrow=ERone;endSize=8;targetPerimeterSpacing=2;sourcePerimeterSpacing=2;startSize=8;startFill=0;entryX=1;entryY=0.5;entryDx=0;entryDy=0;" edge="1" parent="1" target="uzaHLaAloiq683FSmLbI-73">
          <mxGeometry width="100" height="100" relative="1" as="geometry">
            <mxPoint x="598" y="165" as="sourcePoint" />
            <mxPoint x="660.05" y="249.99" as="targetPoint" />
          </mxGeometry>
        </mxCell>
        <mxCell id="4qhFQr76ofjWPNA47JDN-42" value="" style="fontSize=8;html=1;endArrow=ERzeroToMany;startArrow=ERone;endSize=8;targetPerimeterSpacing=2;sourcePerimeterSpacing=2;startSize=8;startFill=0;entryX=1;entryY=0.5;entryDx=0;entryDy=0;exitX=0;exitY=0.333;exitDx=0;exitDy=0;exitPerimeter=0;" edge="1" parent="1" source="uzaHLaAloiq683FSmLbI-73">
          <mxGeometry width="100" height="100" relative="1" as="geometry">
            <mxPoint x="388" y="160" as="sourcePoint" />
            <mxPoint x="340" y="160" as="targetPoint" />
          </mxGeometry>
        </mxCell>
        <mxCell id="4qhFQr76ofjWPNA47JDN-43" value="" style="fontSize=8;html=1;endArrow=ERzeroToMany;startArrow=ERone;endSize=8;targetPerimeterSpacing=2;sourcePerimeterSpacing=2;startSize=8;startFill=0;entryX=0.431;entryY=0.005;entryDx=0;entryDy=0;entryPerimeter=0;" edge="1" parent="1" target="uzaHLaAloiq683FSmLbI-1">
          <mxGeometry width="100" height="100" relative="1" as="geometry">
            <mxPoint x="103" y="320" as="sourcePoint" />
            <mxPoint x="230" y="320.01" as="targetPoint" />
          </mxGeometry>
        </mxCell>
        <mxCell id="4qhFQr76ofjWPNA47JDN-44" value="" style="fontSize=8;html=1;endArrow=ERzeroToMany;startArrow=ERone;endSize=8;targetPerimeterSpacing=2;sourcePerimeterSpacing=2;startSize=8;startFill=0;entryX=1;entryY=0.5;entryDx=0;entryDy=0;exitX=-0.011;exitY=0.16;exitDx=0;exitDy=0;exitPerimeter=0;" edge="1" parent="1" source="4qhFQr76ofjWPNA47JDN-13" target="uzaHLaAloiq683FSmLbI-2">
          <mxGeometry width="100" height="100" relative="1" as="geometry">
            <mxPoint x="113" y="330" as="sourcePoint" />
            <mxPoint x="113.10000000000002" y="440.5999999999999" as="targetPoint" />
          </mxGeometry>
        </mxCell>
        <mxCell id="4qhFQr76ofjWPNA47JDN-45" value="" style="fontSize=8;html=1;endArrow=ERzeroToMany;startArrow=ERone;endSize=8;targetPerimeterSpacing=2;sourcePerimeterSpacing=2;startSize=8;startFill=0;edgeStyle=elbowEdgeStyle;exitX=0;exitY=0.5;exitDx=0;exitDy=0;entryX=1;entryY=0.5;entryDx=0;entryDy=0;" edge="1" parent="1" source="4qhFQr76ofjWPNA47JDN-22" target="JIwi4Zt-y48VCgLrM_P_-15">
          <mxGeometry width="100" height="100" relative="1" as="geometry">
            <mxPoint x="170" y="830" as="sourcePoint" />
            <mxPoint x="240" y="880" as="targetPoint" />
            <Array as="points">
              <mxPoint x="240" y="710" />
            </Array>
          </mxGeometry>
        </mxCell>
        <mxCell id="4qhFQr76ofjWPNA47JDN-46" value="" style="fontSize=8;html=1;endArrow=ERzeroToMany;startArrow=ERone;endSize=8;targetPerimeterSpacing=2;sourcePerimeterSpacing=2;startSize=8;startFill=0;edgeStyle=orthogonalEdgeStyle;elbow=vertical;exitX=0.75;exitY=1;exitDx=0;exitDy=0;entryX=0;entryY=0.5;entryDx=0;entryDy=0;" edge="1" parent="1" source="4qhFQr76ofjWPNA47JDN-3" target="uzaHLaAloiq683FSmLbI-131">
          <mxGeometry width="100" height="100" relative="1" as="geometry">
            <mxPoint x="410" y="880" as="sourcePoint" />
            <mxPoint x="340" y="800" as="targetPoint" />
          </mxGeometry>
        </mxCell>
        <mxCell id="4qhFQr76ofjWPNA47JDN-47" value="" style="fontSize=8;html=1;endArrow=oval;startArrow=oval;endSize=8;targetPerimeterSpacing=2;sourcePerimeterSpacing=2;startSize=8;startFill=0;edgeStyle=elbowEdgeStyle;endFill=0;entryX=1;entryY=0.5;entryDx=0;entryDy=0;exitX=1;exitY=0.5;exitDx=0;exitDy=0;" edge="1" parent="1" source="uzaHLaAloiq683FSmLbI-121" target="uzaHLaAloiq683FSmLbI-105">
          <mxGeometry width="100" height="100" relative="1" as="geometry">
            <mxPoint x="740" y="430" as="sourcePoint" />
            <mxPoint x="760" y="320" as="targetPoint" />
            <Array as="points">
              <mxPoint x="790" y="280" />
            </Array>
          </mxGeometry>
        </mxCell>
        <mxCell id="4qhFQr76ofjWPNA47JDN-48" value="" style="fontSize=8;html=1;endArrow=ERzeroToMany;startArrow=ERone;endSize=8;targetPerimeterSpacing=2;sourcePerimeterSpacing=2;startSize=8;startFill=0;edgeStyle=elbowEdgeStyle;endFill=1;entryX=0.57;entryY=0.002;entryDx=0;entryDy=0;entryPerimeter=0;exitX=0.75;exitY=0;exitDx=0;exitDy=0;" edge="1" parent="1" source="uzaHLaAloiq683FSmLbI-104" target="uzaHLaAloiq683FSmLbI-91">
          <mxGeometry width="100" height="100" relative="1" as="geometry">
            <mxPoint x="695" y="50" as="sourcePoint" />
            <mxPoint x="285" y="50" as="targetPoint" />
            <Array as="points">
              <mxPoint x="500" y="60" />
            </Array>
          </mxGeometry>
        </mxCell>
      </root>
    </mxGraphModel>
  </diagram>
</mxfile>
